<?xml version="1.0" encoding="UTF-8"?>
<!DOCTYPE svg PUBLIC "-//W3C//DTD SVG 1.1//EN" "http://www.w3.org/Graphics/SVG/1.1/DTD/svg11.dtd">
<!-- Creator: CorelDRAW -->
<svg xmlns="http://www.w3.org/2000/svg" xml:space="preserve" width="2048px" height="2048px" style="shape-rendering:geometricPrecision; text-rendering:geometricPrecision; image-rendering:optimizeQuality; fill-rule:evenodd; clip-rule:evenodd"
viewBox="0 0 2048 2048"
 xmlns:xlink="http://www.w3.org/1999/xlink">
 <defs>
  <style type="text/css">
   <![CDATA[
    .fil1 {fill:none}
    .fil0 {fill:#424242}
    .fil2 {fill:white}
   ]]>
  </style>
 </defs>
 <rect class="fil0" width="2048" height="2048"/>
 <g id="Layer_x0020_1">
  <metadata id="CorelCorpID_0Corel-Layer"/>
  <rect class="fil1" width="2048" height="2048"/>
  <rect class="fil1" x="255.999" y="255.999" width="1536" height="1536"/>
  <rect class="fil1" x="256.003" y="256.001" width="1536" height="1536"/>
  <rect class="fil1" x="256.003" y="256.001" width="1536" height="1536"/>
  <path class="fil2" d="M255.999 1041.05c0.00708662,-159.075 104.269,-288.03 232.879,-288.03 97.4339,0 180.882,74.0138 215.627,179.065l472.616 0c12.5965,0.00826772 24.5953,5.30079 33.0721,14.5843l64.7233 64.7079c7.78583,8.55355 11.6906,19.3701 11.6988,30.1784 0,10.8165 -3.913,21.626 -11.6988,30.1713l-64.7233 63.7111c-8.46969,9.29056 -20.4756,14.5984 -33.0721,14.6067l-48.1453 -0.00826772c-11.8831,-0.0153543 -23.2595,-4.72559 -31.6595,-13.1173l-32.5571 -32.5571 -32.5571 32.5571c-8.39292,8.39174 -19.7776,13.102 -31.6595,13.1173l-56.4461 0c-11.8677,0 -23.2441,-4.72559 -31.6441,-13.1173l-32.5571 -32.5571 -32.5583 32.5571c-8.39174,8.39174 -19.7835,13.1173 -31.6512,13.1102l-111.181 0.00708662c-34.7516,105.045 -118.193,179.058 -215.635,179.066 -128.602,-0.00826772 -232.871,-128.963 -232.871,-288.052zm170.358 94.4339c34.5284,0 62.5217,-42.2847 62.5217,-94.4268 0,-52.1575 -27.9851,-94.4268 -62.5217,-94.4186 -34.5284,-0.00826772 -62.5288,42.2681 -62.5288,94.4115 0.00708662,52.1493 27.9921,94.4339 62.5288,94.4339zm1210.63 -783.729l-723.838 0c-85.9123,0 -155.33,69.4182 -155.33,155l0 258.54 103.556 0 0 -258.54c0,-28.5142 23.191,-51.4441 51.7748,-51.4441l723.838 0c28.5071,0 51.7819,22.9299 51.7819,51.4441l0 1034.15c0,28.5839 -23.2748,51.7737 -51.7819,51.7737l-723.838 0c-28.5839,0 -51.7748,-23.1898 -51.7748,-51.7737l0 -258.533 -103.556 0 0 258.533c0,85.9111 69.4182,155.329 155.33,155.329l723.838 0c85.5816,0 155.008,-69.4182 155.008,-155.329l0 -1034.15c0,-85.5816 -69.4264,-155 -155.008,-155z"/>
 </g>
</svg>
