<svg xmlns="http://www.w3.org/2000/svg" viewBox="0 0 64 64"><title>Artboard-35</title><g id="Clipboard"><rect x="50" y="16" width="5" height="39" style="fill:#232328"/><rect x="57" y="16" width="5" height="39" style="fill:#232328"/><path d="M50,57v1a6,6,0,0,0,12,0V57Z" style="fill:#232328"/><path d="M61.5541,14,56.8477,6.47a1.0393,1.0393,0,0,0-1.6954,0L50.4459,14Z" style="fill:#232328"/><circle cx="25" cy="11" r="3" style="fill:#232328"/><path d="M47,6H34.793A10.9919,10.9919,0,0,0,15.207,6H3A1,1,0,0,0,2,7V63a1,1,0,0,0,1,1H47a1,1,0,0,0,1-1V7A1,1,0,0,0,47,6ZM25,6a5,5,0,1,1-5,5A5.0059,5.0059,0,0,1,25,6ZM20,23h1.917V21.083a3.083,3.083,0,0,1,6.166,0V23H30a2.0027,2.0027,0,0,1,2,2v8a3.0033,3.0033,0,0,1-3,3H21a3.0033,3.0033,0,0,1-3-3V25A2.0027,2.0027,0,0,1,20,23ZM39,38a1,1,0,0,1,0,2H11a1,1,0,0,1,0-2ZM34,27a1,1,0,0,1,1-1h2a1,1,0,0,1,0,2H35A1,1,0,0,1,34,27Zm5,25H37a1,1,0,0,1,0-2h2a1,1,0,0,1,0,2Zm1,3a1,1,0,0,1-1,1H37a1,1,0,0,1,0-2h2A1,1,0,0,1,40,55Zm-1-7H37a1,1,0,0,1,0-2h2a1,1,0,0,1,0,2Zm0-4H37a1,1,0,0,1,0-2h2a1,1,0,0,1,0,2Zm-6,8H11a1,1,0,0,1,0-2H33a1,1,0,0,1,0,2Zm1,3a1,1,0,0,1-1,1H11a1,1,0,0,1,0-2H33A1,1,0,0,1,34,55Zm-1-7H11a1,1,0,0,1,0-2H33a1,1,0,0,1,0,2Zm0-4H11a1,1,0,0,1,0-2H33a1,1,0,0,1,0,2ZM12,27a1,1,0,0,1,1-1h2a1,1,0,0,1,0,2H13A1,1,0,0,1,12,27ZM44,59a1,1,0,0,1-1,1H7a1,1,0,0,1-1-1V11a1,1,0,0,1,1-1H17a1,1,0,0,1,0,2H8V58H42V12H33a1,1,0,0,1,0-2H43a1,1,0,0,1,1,1Z" style="fill:#232328"/><path d="M26.083,21.083a1.083,1.083,0,0,0-2.166,0V23h2.166Z" style="fill:#232328"/><path d="M21,34h8a1.0006,1.0006,0,0,0,1-1V25H28.083v2a1,1,0,0,1-2,0V25H23.917v2a1,1,0,0,1-2,0V25H20v8A1.0006,1.0006,0,0,0,21,34Z" style="fill:#232328"/></g></svg>