<?xml version="1.0" encoding="iso-8859-1"?>
<!-- Generator: Adobe Illustrator 23.0.5, SVG Export Plug-In . SVG Version: 6.00 Build 0)  -->
<svg version="1.1" xmlns="http://www.w3.org/2000/svg" xmlns:xlink="http://www.w3.org/1999/xlink" x="0px" y="0px"
	 viewBox="0 0 492 492" style="enable-background:new 0 0 492 492;" xml:space="preserve">
<g id="Master_Layer_2">
</g>
<g id="Layer_1">
	<g>
		<g>
			<g>
				<g>
					<g>
						<path style="fill-rule:evenodd;clip-rule:evenodd;fill:#212121;" d="M208.267,431.065c-1.8,0-3.624-0.048-5.424-0.12
							c-17.832-0.792-33.96-5.568-47.928-14.208c-12.24-7.584-22.824-18.096-31.416-31.248c-7.368-11.28-13.128-24.24-17.16-38.52
							c-3.456-12.24-5.472-25.056-5.832-37.104c-0.288-9.648-0.408-160.128-0.12-169.488c0.264-8.472,3.096-15.816,8.232-21.288
							c4.68-4.992,11.016-8.064,17.856-8.664c3.792-0.336,13.416-0.36,20.952,6.528c5.832,5.352,8.808,13.272,8.808,23.568
							c0,3.192-2.568,5.76-5.76,5.76c-3.168,0-5.76-2.568-5.76-5.76c0-6.936-1.704-12-5.064-15.072
							c-4.152-3.816-9.912-3.768-12.168-3.552c-4.008,0.36-7.728,2.16-10.464,5.064c-3.168,3.384-4.944,8.136-5.112,13.752
							c-0.264,8.544-0.144,159.96,0.12,168.768c0.336,11.112,2.208,22.992,5.4,34.32c3.72,13.152,9,25.056,15.72,35.352
							c7.656,11.736,17.016,21.048,27.816,27.744c12.264,7.584,26.52,11.784,42.384,12.504c14.16,0.624,28.2-1.464,41.712-6.24
							c13.416-4.728,25.728-11.904,36.576-21.264c14.304-12.36,41.736-36.864,64.752-62.016c12.264-13.392,33-37.824,34.32-51.168
							c0.432-4.272-1.296-10.104-5.4-12.984c-2.04-1.44-5.4-3.36-10.8-3.576c-7.632-0.288-16.776,2.904-27.192,9.48
							c-1.776,1.128-8.04,5.928-15.288,11.496c-10.536,8.088-24.96,19.176-36.864,27.576c-2.592,1.848-6.192,1.224-8.04-1.392
							c-1.824-2.592-1.224-6.192,1.392-8.04c11.688-8.256,26.016-19.272,36.48-27.312c9.144-7.032,14.04-10.752,16.152-12.096
							c12.408-7.848,23.784-11.616,33.792-11.256c9.432,0.36,15.12,4.344,16.992,5.664c8.112,5.688,11.016,15.936,10.248,23.544
							c-1.272,12.888-13.464,31.8-37.296,57.84c-23.4,25.584-51.216,50.424-65.712,62.952
							c-11.928,10.32-25.488,18.192-40.272,23.424C235.723,428.713,222.067,431.065,208.267,431.065z"/>
					</g>
					<g>
						<path style="fill-rule:evenodd;clip-rule:evenodd;fill:#212121;" d="M151.219,246.217c-3.144,0-5.712-2.52-5.76-5.688
							c-0.24-17.808-1.344-107.952-0.408-133.2c0.384-10.224,5.064-16.584,8.928-20.136c4.824-4.416,11.136-6.96,17.352-6.96
							c0.024,0,0.048,0,0.072,0c5.232,0.024,12.768,1.008,18.984,5.736c4.416,3.336,9.672,9.792,9.72,21.552
							c0.024,3.192-2.568,5.76-5.736,5.784h-0.024c-3.168,0-5.736-2.568-5.76-5.736c-0.024-5.76-1.704-9.816-5.136-12.408
							c-2.88-2.184-7.176-3.384-12.072-3.384h-0.024c-3.312,0-6.888,1.464-9.576,3.936c-2.256,2.064-4.992,5.832-5.208,12.072
							c-0.936,24.96,0.192,114.84,0.408,132.624c0.048,3.192-2.496,5.784-5.688,5.832
							C151.267,246.217,151.243,246.217,151.219,246.217z"/>
					</g>
					<g>
						<path style="fill-rule:evenodd;clip-rule:evenodd;fill:#212121;" d="M194.731,235.729c-3.168,0-5.736-2.544-5.76-5.712
							c-0.168-24.864-0.312-116.616-0.312-119.04l-0.048-3.192c-0.336-21.264-0.432-27.672,5.112-34.536
							c6.24-7.728,16.824-11.88,26.952-10.608c14.424,1.824,24.312,11.808,24.624,24.816c0.216,9.696,0.264,22.92,0.312,35.712
							c0.024,3.408,0.024,6.768,0.048,10.008c0.024,3.192-2.544,5.784-5.736,5.784h-0.024c-3.168,0-5.736-2.568-5.76-5.736
							c-0.024-3.216-0.024-6.6-0.048-10.008c-0.048-12.72-0.096-25.896-0.312-35.496c-0.168-7.2-5.88-12.552-14.544-13.656
							c-6.168-0.792-12.816,1.8-16.56,6.432c-2.736,3.384-2.88,6.576-2.544,27.12l0.048,3.24c0,0.024,0,0.048,0,0.072
							c0,0.936,0.144,93.984,0.312,119.016c0.024,3.192-2.544,5.784-5.712,5.808C194.755,235.729,194.755,235.729,194.731,235.729z"
							/>
					</g>
					<g>
						<path style="fill-rule:evenodd;clip-rule:evenodd;fill:#212121;" d="M281.851,311.761c-3.192,0-5.76-2.568-5.76-5.76
							c0-13.2,0.144-48.936,0.288-86.76c0.168-44.424,0.36-90.384,0.36-110.256c0-2.352-0.384-6.84-3.048-10.32
							c-2.64-3.456-7.104-5.232-13.296-5.232c-4.176,0-7.848,1.2-10.344,3.384c-2.976,2.616-4.488,6.768-4.488,12.336
							c0,0.792,0.312,82.248,0,126c-0.024,3.168-2.592,5.712-5.76,5.712c-0.024,0-0.024,0-0.048,0
							c-3.192-0.024-5.736-2.616-5.712-5.808c0.312-43.68,0-125.064,0-125.88c0-11.256,4.584-17.64,8.4-21.024
							c4.584-4.032,10.968-6.264,17.952-6.264c6.864,0,16.344,1.704,22.464,9.792c2.016,2.64,5.376,8.424,5.376,17.28
							c0,19.92-0.192,65.856-0.36,110.304c-0.144,37.824-0.288,73.536-0.288,86.712
							C287.611,309.193,285.019,311.761,281.851,311.761z"/>
					</g>
				</g>
				<g>
					<g>
						<path style="fill-rule:evenodd;clip-rule:evenodd;fill:#212121;" d="M206.299,379.489c-1.464,0-2.952-0.552-4.08-1.68
							l-40.104-40.104c-6-6-9.312-14.016-9.312-22.512s3.312-16.488,9.312-22.512c12.144-12.144,31.728-12.408,44.184-0.792
							c5.904-5.496,13.56-8.52,21.672-8.52c8.496,0,16.488,3.312,22.512,9.312c6,6,9.312,14.016,9.312,22.512
							s-3.312,16.488-9.312,22.512l-40.104,40.104C209.227,378.937,207.763,379.489,206.299,379.489L206.299,379.489z
							 M184.603,294.889c-5.208,0-10.392,1.968-14.352,5.928c-7.92,7.92-7.92,20.808,0,28.728l36.048,36.048l36.048-36.048
							c7.92-7.92,7.92-20.808,0-28.728c-3.84-3.84-8.928-5.952-14.352-5.952c-5.424,0-10.536,2.112-14.352,5.952l-3.24,3.24
							c-2.256,2.256-5.904,2.256-8.136,0l-3.24-3.24C195.019,296.857,189.811,294.889,184.603,294.889z"/>
					</g>
				</g>
			</g>
		</g>
	</g>
</g>
</svg>
