<?xml version="1.0" encoding="utf-8"?>
<!-- Generator: Adobe Illustrator 23.0.2, SVG Export Plug-In . SVG Version: 6.00 Build 0)  -->
<svg version="1.1" id="Layer_1" xmlns="http://www.w3.org/2000/svg" xmlns:xlink="http://www.w3.org/1999/xlink" x="0px" y="0px"
	 viewBox="0 0 2048 2048" style="enable-background:new 0 0 2048 2048;" xml:space="preserve">
<style type="text/css">
	.st0{fill:#3582A8;}
	.st1{fill:#C4E2FF;}
</style>
<g>
	<path class="st0" d="M877.68,917.68H296c-22.09,0-40-17.91-40-40V296c0-22.09,17.91-40,40-40h581.68c22.09,0,40,17.91,40,40v581.68
		C917.68,899.77,899.77,917.68,877.68,917.68z"/>
	<path class="st0" d="M877.68,1792H296c-22.09,0-40-17.91-40-40v-581.68c0-22.09,17.91-40,40-40h581.68c22.09,0,40,17.91,40,40V1752
		C917.68,1774.09,899.77,1792,877.68,1792z"/>
	<path class="st0" d="M1752,1792h-581.68c-22.09,0-40-17.91-40-40v-581.68c0-22.09,17.91-40,40-40H1752c22.09,0,40,17.91,40,40V1752
		C1792,1774.09,1774.09,1792,1752,1792z"/>
	<path class="st0" d="M1752,917.68h-581.68c-22.09,0-40-17.91-40-40V296c0-22.09,17.91-40,40-40H1752c22.09,0,40,17.91,40,40v581.68
		C1792,899.77,1774.09,917.68,1752,917.68z"/>
	<g>
		<g>
			<g>
				<path class="st1" d="M586.84,723.1c-13.68,0-24.77-11.09-24.77-24.77V475.35c0-13.68,11.09-24.77,24.77-24.77
					c13.68,0,24.77,11.09,24.77,24.77v222.97C611.61,712.01,600.52,723.1,586.84,723.1z"/>
			</g>
			<g>
				<path class="st1" d="M698.32,611.61H475.35c-13.68,0-24.77-11.09-24.77-24.77c0-13.68,11.09-24.77,24.77-24.77h222.97
					c13.68,0,24.77,11.09,24.77,24.77C723.1,600.52,712.01,611.61,698.32,611.61z"/>
			</g>
		</g>
	</g>
	<g>
		<g>
			<g>
				<path class="st1" d="M1572.65,1485.94h-222.97c-13.68,0-24.77-11.09-24.77-24.77c0-13.68,11.09-24.77,24.77-24.77h222.97
					c13.68,0,24.77,11.09,24.77,24.77C1597.42,1474.84,1586.33,1485.94,1572.65,1485.94z"/>
			</g>
		</g>
	</g>
	<g>
		<g>
			<g>
				<path class="st1" d="M508.01,1564.77c-6.34,0-12.68-2.42-17.52-7.26c-9.67-9.68-9.67-25.36,0-35.04l157.66-157.66
					c9.67-9.67,25.36-9.67,35.04,0c9.67,9.68,9.67,25.36,0,35.04l-157.66,157.66C520.69,1562.35,514.35,1564.77,508.01,1564.77z"/>
			</g>
			<g>
				<path class="st1" d="M665.67,1564.77c-6.34,0-12.68-2.42-17.52-7.26l-157.66-157.66c-9.67-9.68-9.67-25.36,0-35.04
					c9.68-9.68,25.36-9.68,35.04,0l157.66,157.66c9.67,9.68,9.67,25.36,0,35.04C678.35,1562.35,672.01,1564.77,665.67,1564.77z"/>
			</g>
		</g>
	</g>
	<g>
		<g>
			<path class="st1" d="M1572.65,611.61h-222.97c-13.68,0-24.77-11.09-24.77-24.77c0-13.68,11.09-24.77,24.77-24.77h222.97
				c13.68,0,24.77,11.09,24.77,24.77C1597.42,600.52,1586.33,611.61,1572.65,611.61z"/>
		</g>
	</g>
	<g>
		<g>
			<g>
				<circle class="st1" cx="1461.16" cy="1349.68" r="34.06"/>
			</g>
			<g>
				<circle class="st1" cx="1461.16" cy="1572.65" r="34.06"/>
			</g>
		</g>
	</g>
</g>
</svg>
