<svg xmlns="http://www.w3.org/2000/svg" viewBox="0 0 512 512"><title>Artboard 165</title><g id="E_Learning" data-name="E Learning"><path d="M256,128H426.66667a0,0,0,0,1,0,0v85.33342a85.33325,85.33325,0,0,1-85.33325,85.33325h-.00017A85.33325,85.33325,0,0,1,256,213.33342V128a0,0,0,0,1,0,0Z" style="fill:#002755"/><path d="M300.91891,30.87388,211.08109,75.79279A34.518,34.518,0,0,0,192,106.66665v0a34.518,34.518,0,0,0,19.08109,30.87386l89.83782,44.9189A90.36929,90.36929,0,0,0,341.33331,192h0a90.36937,90.36937,0,0,0,40.41441-9.54055l89.83781-44.9189a34.518,34.518,0,0,0,19.0811-30.87386v0a34.518,34.518,0,0,0-19.0811-30.87386L381.74776,30.87388a90.36937,90.36937,0,0,0-40.41441-9.54055h0A90.36929,90.36929,0,0,0,300.91891,30.87388Z" style="fill:#bc5cf3"/><rect x="234.66671" y="64" width="213.33329" height="85.33333" rx="42.66662" ry="42.66662" style="fill:#b244f1"/><path d="M285.91341,39.62923a10.62827,10.62827,0,0,0-4.75651,1.126L237.72624,62.47005l-.00977.00488-.22819.11394-.082.04134-.05241.026-.13183.06608-.19467.09733-.01041.00488-.07325.03679-.04915.02474-.05208.026-.02442.012-.68066.3405-.01628.00814-.19661.0983-.11589.05795-.05924.02962-.04688.02344-.03027.015-.0446.02246-.16113.0804-.05273.02637-.0433.02181-.15462.07715-.04622.02311c-.05111.02572-.10157.05078-.15235.07617l-.07291.03646-.05957.02995-.21908.10938-.014.00716-.07324.03646c-.0446.02246-.08822.04427-.13281.0664l-.07259.03646-.02865.01432-.05469.02735-.03645.01823-.05827.029-.06088.0306-.347.1735-.03093.0153-1.028.514-.00846.00423-.459.22949-.03808.01921-.04525.02246-.03678.01855-.05892.0293-.06478.03255-.02442.012-.04394.02214-.26791.13379-.00683.00358-.06608.03288-.068.03418-.0052.0026c-.05892.0293-.11361.05664-.17253.08626l-.02734.01335c-.11361.057-.22526.113-.33822.16927l-.04655.02344c-.10514.05241-.21224.10612-.31706.15853l-.07877.03939-.00293.0013-.16862.08431-.03744.01888-.19466.09733-.10319.05143-.00586.00293c-.306.153-.60677.30339-.90853.45443l-.0192.00944c-.055.02767-.10677.05338-.16179.08073l-.22461.11263c-.22233.111-.44108.22037-.6608.3304l-.04655.02311c-.04851.02409-.09408.0472-.14226.07129l-.026.0127-.15462.07747-.02637.01335c-.04817.02409-.09733.0485-.14518.07259l-.0319.016-.05664.02832-.14616.07292-.02539.01269-.02767.014-.05924.02962-.04362.02148c-.04558.02312-.09278.04655-.13835.06934l-.02734.01367c-.11133.05567-.22364.11166-.334.167l-.00553.00293c-.23015.11491-.45508.22754-.682.34083l-.01107.00553q-.33739.16895-.66992.335l-.01334.00684c-.18978.09472-.37631.18782-.56348.28157l-.21094.10547-.04492.02246-.00944.00488c-.05534.02735-.10677.05339-.16178.08073l-.00424.002q-.15674.0786-.31217.15625l-.027.01334c-.10189.05111-.20443.10222-.30534.153l-.01172.00553c-.09765.04883-.1914.096-.28841.14453l-.05566.02767-.599.29948-.0153.00781c-.09993.04981-.20345.10157-.30208.151l-.00782.00391c-.07128.03548-.14.07-.21093.10514l-.16341.08171c-.38217.19141-.75359.377-1.12077.56055l-.02637.013c-.38509.19271-.75749.3789-1.12467.5625l-.03028.015c-.736.36817-1.43815.71908-2.09538,1.04785l-.027.01335c-1.32683.66341-2.48308,1.24154-3.43718,1.71875l-.01172.00586-3.00521,1.5026h0l-.06022.03028-.02018.01009-.04232.02116-.02083.01074-.05632.02864-.02278.0114-.03613.01823-.02767.01432-.03581.01823-.03093.016-.04654.02409-.02833.01465-.03027.01562-.02995.01563-.02864.015-.05567.029-.02441.0127-.03418.0179-.02279.01205-.07747.041-.00553.00293-.03516.01888-.02246.01172-.03679.01953-.01464.00814-.0739.03939-.01367.00748-.03874.02084-.01692.00911c-.04395.02376-.08724.04753-.13086.07129l-.00749.00391-.04264.02343-.01009.00554c-.04395.02409-.08822.0485-.13184.07292l-.01074.00585c-.04492.02474-.08985.04981-.13444.07487l-.00586.00358-.04395.02442-.00748.00423-.13314.07552-.00912.00521-.04329.02474-.0026.00163q-.06885.03906-.1377.07877l-.00716.00423-.13607.07911-.00325.00195-.0459.02669-.00163.001c-.04655.02734-.0931.055-.13932.08236l-.002.0013q-.06884.04053-.13769.082l-.00358.00195-.04362.02637-.00586.00358c-.0446.02669-.08919.05371-.13347.0804l-.00585.00391c-.06055.03678-.12045.07357-.181.11068l-.00782.00488c-.04394.027-.08756.054-.13151.08138l-.00488.00326-.04329.027-.00489.00293-.13053.082-.00912.00586c-.04394.02767-.08756.05567-.13151.08334l-.00325.00228-.0433.028-.00488.00293-.12923.083-.00879.00586-.042.02734-.00065.00065q-.06592.04248-.13119.08561l-.01172.00749-.12565.083-.00618.00391-.04167.028-.00651.00423q-.06251.0415-.12435.08334l-.01269.00846-.03841.02571-.00521.00359-.0791.05371-.00879.00586-.03907.02669-.00944.00651c-.04069.02767-.08105.05534-.12174.08333l-.01139.00781-.04.02767-.00228.00163-.126.08724-.01367.00977c-.03939.02734-.07845.055-.11751.08235l-.01237.00879-.03516.02507-.01628.01139q-.05761.04053-.11523.08171l-.01172.00846-.03776.02734-.00618.00424c-.02507.0179-.05013.0358-.07487.054l-.01042.00716-.03711.027-.01172.00847-.11881.08658-.00879.00651-.03939.02865-.00456.00326-.124.09179-.00651.00489q-.062.04589-.1237.09212l-.00456.00325-.04.02995-.00651.00488-.12272.09278-.00456.00358-.126.0957-.0013.0013-.04232.03223-.00065.00065c-.043.03288-.08529.06576-.12793.09863l-.00033.00033q-.08544.06641-.17025.13314a10.66655,10.66655,0,1,0,13.1836,16.77181,13.2486,13.2486,0,0,1,2.25358-1.42741l70.07031-35.03483a10.66827,10.66827,0,0,0-4.77832-20.20964Zm165.30664,27.2334a10.66836,10.66836,0,0,0-4.77864,20.20964l15.60351,7.80143a13.33189,13.33189,0,0,1,1.293.73958,10.66655,10.66655,0,0,0,11.62109-17.89,34.6671,34.6671,0,0,0-3.20182-1.84408l-.013-.00683-.041-.02051-.02474-.0127-.03321-.0166-.05989-.02995h0l-.67058-.33528h0l-1.76757-.88379h0l-2.4987-1.24935h0l-2.86459-1.43229h0l-2.86458-1.43229h0L458.41992,69.21h0l-1.76758-.88379h0l-.67057-.33528h0a10.6202,10.6202,0,0,0-4.76172-1.12826ZM341.33333,21.33333H341.167l-.02864.00033h-.0931l-.043.00032-.05176.00033h-.03027l-.04883.00033h-.03516l-.04.00032-.04427.00033h-.03353l-.04915.00065h-.03613l-.04655.00032-.03841.00065-.04395.00033-.041.00033-.042.00032-.03971.00033-.043.00065-.04362.00032-.03874.00065-.04264.00033-.04069.00065-.041.00065-.043.00033-.03841.00065-.04395.00065-.04.00065-.04394.00065-.03711.00065-.0446.00065-.04069.00065-.043.00066-.03711.00065-.04622.001-.03776.00065-.04492.001-.03874.00065-.04264.001-.04167.00065-.042.001-.03841.00065-.04525.001-.03874.001-.04394.001-.03776.001-.0459.001-.03711.001-.04655.001-.03483.001-.04818.0013-.03516.001-.0498.0013-.0306.00065-.05306.00163-.03027.00065-.05339.00163-.02832.00065-.05436.00163-.0306.001-.05111.00163-.03157.001-.05209.00162-.03027.001-.056.00163-.02474.00065-.05827.002-.02571.001-.0612.00195-.01921.00065-.0638.00228-.02018.00065-.06673.00261-.01433.00032-.06738.00261-.01692.00065-.07227.0026-.00846.00033-.07325.00293-.01106.00032-.07748.00293-.00423.00033-.0791.00325h-.00423a90.37219,90.37219,0,0,0-16.32325,2.16667h-.00065l-.08007.01823-.001.00032-.07878.01791-.0039.001-.0752.01726-.00781.00162-.06966.01628-.015.00326-.06412.015-.01726.00391-.06119.01432-.02181.00488-.05925.014-.02051.00456-.05892.014-.02311.00554-.05729.01334-.02246.00521-.05534.013-.02832.00684-.04753.01139-.03483.00814-.04134.00977-.042.01009-.03288.00781-.04883.01172-.027.00651-.04427.01074a10.66659,10.66659,0,1,0,4.99609,20.73991,69.11881,69.11881,0,0,1,16.14648-1.91471h0a69.38945,69.38945,0,0,1,30.87435,7.28841L408.2793,67.99089A10.66664,10.66664,0,0,0,417.85807,48.929L382.93424,31.46712l-.02669-.01334h0l-.03385-.01693L382.862,31.431l-.06836-.03418-.00977-.00488-.13541-.06771-.01563-.00781-.47721-.23861-.00456-.00228-.403-.2015h0a90.36925,90.36925,0,0,0-40.41472-9.54069Z" style="fill:#c175ff"/><path d="M312.82,469.33333H79.12894a28.51251,28.51251,0,0,1-26.6971-18.5011L23.14957,294.524a28.51252,28.51252,0,0,1,6.5357-30.17281l0,0A28.51256,28.51256,0,0,1,49.84669,256h233.691a28.51251,28.51251,0,0,1,26.6971,18.5011L339.5171,430.80938a28.51252,28.51252,0,0,1-6.53571,30.17281l0,0A28.51251,28.51251,0,0,1,312.82,469.33333Z" style="fill:#163969"/><path d="M49.24219,256.01042c-.11361,0-.22819.00162-.34278.0052a28.50191,28.50191,0,0,0-3.43424.32292l-.00456.00065-.03939.00619-.0026.00032-.03971.00651-.00391.00065-.04.00619-.0026.00033-.03776.00618-.00717.0013-.0371.00586-.00489.001-.03939.00618-.00292.00065-.04232.00717h0l-.04232.00683-.001.00033q-.17187.0288-.3431.05989l-.00748.0013-.03451.00619-.00944.00195-.0332.00586-.01074.002-.03028.00585-.01432.00261-.02767.00488-.0153.00293-.02864.00554-.01107.00195-.0306.00586-.01367.0026-.02767.00521-.01563.00293-.02474.00488-.0192.00391-.02409.00456-.01563.00293-.02669.0052-.01693.00358-.02376.00456-.01855.00358-.02214.00456-.02051.00391-.02311.00488-.01758.00358-.02311.00456-.02018.00423-.02181.00423-.01921.00391-.02181.00455-.02116.00424-.02246.00455-.01823.00391-.02148.00456-.13151.02767-.01335.00293-.029.00618-.012.0026-.026.00554-.01661.00358-.02474.00553-.01627.00358-.02442.00521-.0179.00423-.02376.00521-.01693.00358-.026.00586-.0153.00326-.02637.00618-.01465.00326-.02539.00553-.0179.00423-.02311.00521-.01791.00423-.02376.00521-.01758.00423-.02409.00554-.01725.0039-.02409.00554-.01823.00423-.02311.00553-.01692.00391-.02507.00586-.01562.00358-.02605.00618-.013.00326-.02864.00684-.01075.00227-.03157.00782-.00261.00065c-.10709.02571-.21419.05208-.32063.07877l-.00131.00033-.03515.00911-.00651.00163-.03483.00879-.00554.0013-.0345.00912-.00651.00163-.03516.00911-.00521.0013-.03353.00879-.00813.002-.03386.00879-.00586.00163-.03353.00879-.00781.002-.03385.00912-.00619.00162-.0332.00879-.00846.00228-.03321.00879-.00618.00163-.03418.00911-.00619.002-.03613.00976h-.00032q-.3008.08154-.59929.16992l-.0026.00066-.03874.01139H41.7373l-.03906.01172-.0013.00032-.0778.02344-.00293.00065q-.438.13233-.87077.278h-.00032l-.0778.02636-.00163.00065a28.53829,28.53829,0,0,0-4.52506,1.99154l-.001.00065-.03548.01953-.00065.00065c-.18262.10026-.363.20215-.5433.30632l-.001.00065-.03417.01986-.00261.0013q-.07129.04151-.14258.08366l-.00065.00032q-.28662.16894-.56966.3444l-.0013.001-.06966.0433-.00131.00065-.0345.02148-.00065.00065-.0332.02084-.00326.00195c-.04655.0293-.09245.05859-.13867.08789l-.00261.00163q-.27978.17821-.55566.36328l-.00326.00195-.0319.02149-.0026.002-.02962.01986-.00684.00455-.02734.01856-.00847.00586-.02441.0166-.01139.00749-.026.01757-.00717.00489-.028.0192-.00619.00423-.02929.02019-.00489.00325-.02864.01953-.00814.00586-.027.01856-.00716.00488-.02767.01921-.00586.0039-.06347.04427-.00456.00293c-.08887.06185-.17643.1237-.26432.18653l-.00684.00488-.03027.02148-.00293.00228-.02865.02051-.00684.00488-.029.02084-.00423.00325-.02734.01953-.00847.00619-.026.01888-.00781.00553-.02507.01823-.01074.00781-.02343.01725-.0101.00717-.02408.01757-.01107.00814-.02344.01726-.00977.00716-.02474.01823-.00911.00683-.02637.01921-.00521.0039-.029.02116-.00586.00456-.02767.02051-.00651.00488-.027.02018-.00814.00586-.026.01953-.00651.00489-.027.02018-.01009.00781-.02409.0179-.00521.00391q-.0957.07227-.19076.14486l-.00585.00455-.02507.01921-.00879.00684-.02734.02116-.00554.00423-.02636.02018-.00782.00586-.026.02051-.00716.00553-.02539.01986-.00846.00618-.0267.02084-.00618.00488-.02539.01986-.00912.00716-.02441.0192-.00944.00749-.02246.01758-.01172.00911-.02344.01856-.00846.00683-.02409.01888-.00944.00749-.02572.02051-.00488.0039-.02734.02149-.00716.00586-.027.02181-.00293.00228-.0293.02311-.00651.00521-.0599.04817-.00292.00261c-.06316.0511-.127.10286-.18978.15462l-.00358.00293-.02507.02051-.00846.00716-.01953.016-.015.01237-.02051.01693-.01074.00911-.02148.01758-.0127.01074-.01985.0166-.01237.01042-.01986.01628-.014.01171-.02083.01758-.00977.00782-.02278.01953-.01075.00879-.02148.01822-.01172.0101-.01986.0166-.01432.012-.01953.0166-.01074.00912-.02181.01855-.0114.00977-.02148.01823-.01042.00911-.02116.01791-.013.01139-.02018.01725-.00846.00716-.02442.02116-.00748.00619-.02409.02116-.0166.01432-.015.01269-.02311.02019-.00976.00846-.01888.01628-.03191.028-.01367.012-.01692.01465-.01563.01367-.02051.01823-.01107.00944-.02115.01888-.01107.00944-.02018.01823-.01237.01075-.01693.015-.01595.01432-.01725.0153-.01465.013-.01726.0153-.01432.013-.01888.01693-.01367.012-.01693.0153-.0153.01335-.01855.01693-.012.01107-.0192.01725-.0127.01139-.02018.01823-.01237.01139-.01693.0153-.01757.01595-.015.01368-.016.01432-.016.01465-.01465.01367-.01823.0166-.01269.01172-.01791.01627-.0153.01433-.01725.01562-.01334.01237-.01791.0166-.013.012-.01888.01758-.01953.0179-.01107.01074-.0319.02962-.00423.00359-.02767.026-.01172.01106-.0192.01823-.01335.01237L30.29,263.764l-.0127.01172-.0179.01725-.0153.01432-.0166.01563-.015.01432-.016.015-.01464.014-.01791.01725-.01237.01172-.01855.01758-.01335.013-.01823.01758-.01367.01269-.0166.016-.015.01464-.01726.01661-.013.01269-.01823.01758-.013.01269-.01823.01758-.013.0127-.01758.01692-.014.01368-.01823.0179-.01205.012-.01888.01823-.01269.01237-.01726.01726-.014.01367-.0166.0166-.014.01367-.01758.01725-.01367.01335-.01628.01628-.01432.01432-.01921.0192-.01139.0114-.0306.0306a28.50822,28.50822,0,0,0-6.53581,30.17285s.099.52767.28386,1.5153l.0026.01334q.10156.54346.23731,1.26693l.01172.06283.00423.02213.00358.01888.01042.05567.001.00651.014.07389.01432.07715.00391.02018.01888.10124.00488.02637.21257,1.13346.00065.00391L48.55957,430.16211A10.66677,10.66677,0,0,0,69.52116,426.196L44.11784,290.5957a21.28064,21.28064,0,0,0-.99349-3.56185,7.17971,7.17971,0,0,1,6.47591-9.69628,10.66669,10.66669,0,0,0-.35807-21.32715Z" style="fill:#33527d"/><circle cx="202.66667" cy="288" r="10.66667" style="fill:#002755"/><circle cx="160" cy="288" r="10.66667" style="fill:#7d8fac"/><polygon points="91.313 426.667 67.333 298.667 271.354 298.667 295.333 426.667 91.313 426.667" style="fill:#ffea21"/><rect x="85.33333" y="298.66667" width="192" height="21.33333" rx="10.66666" ry="10.66666" style="fill:gold"/><rect x="256" y="405.33333" width="64" height="21.33333" rx="10.66666" ry="10.66666" style="fill:#002755"/><rect x="170.66667" y="320" width="128" height="106.66667" rx="42.66667" ry="42.66667" style="fill:#ffbe00"/><rect x="64" y="448" width="426.66665" height="42.66667" rx="21.33331" ry="21.33331" style="fill:#7d8fac"/><rect x="234.66669" y="448" width="255.99998" height="42.66667" rx="21.33331" ry="21.33331" style="fill:#435e88"/><rect x="341.33333" y="448" width="64" height="21.33333" rx="10.66666" ry="10.66666" style="fill:#163969"/><circle cx="405.33333" cy="192" r="21.33333" style="fill:#163969"/><path d="M341.33333,298.66667,217.8594,308.91747A42.66663,42.66663,0,0,0,192,348.13428v14.53239a42.66666,42.66666,0,0,0,42.66667,42.66666H448a42.66666,42.66666,0,0,0,42.66667-42.66666V348.13421a42.66663,42.66663,0,0,0-25.85942-39.21682Z" style="fill:#dfe5ff"/><path d="M405.33333,283.42839l-64-27.42839-64,27.42839v15.23834a63.99994,63.99994,0,0,0,63.99994,63.99994h.00013a63.99993,63.99993,0,0,0,63.99993-63.99994Z" style="fill:#163969"/><path d="M326.04427,262.55208a21.26454,21.26454,0,0,0,15.28906,36.11459,21.33333,21.33333,0,1,1,0,42.66666c-10.474,0-18.78255,7.69141-20.58854,17.64453a63.3379,63.3379,0,0,0,20.58854,3.68881,63.99983,63.99983,0,0,0,64-64V283.42839l-64-27.42839Z" style="fill:#002755"/><path d="M269.41033,267.70253,218.82066,287.9384A42.66667,42.66667,0,0,0,192,327.55341v35.11326a42.66666,42.66666,0,0,0,42.66667,42.66666h42.66666A21.33334,21.33334,0,0,0,298.66667,384V287.51A21.33334,21.33334,0,0,0,269.41033,267.70253Z" style="fill:#c175ff"/><rect x="256" y="320" width="42.66667" height="85.33333" rx="21.33331" ry="21.33331" style="fill:#b244f1"/><path d="M413.25633,267.70253,463.846,287.9384a42.66667,42.66667,0,0,1,26.82067,39.615v35.11326A42.66666,42.66666,0,0,1,448,405.33333H405.33333A21.33333,21.33333,0,0,1,384,384V287.51A21.33334,21.33334,0,0,1,413.25633,267.70253Z" style="fill:#c175ff"/><rect x="320" y="234.66667" width="42.66667" height="85.33333" style="fill:#163969"/><path d="M341.33333,298.66667A21.33272,21.33272,0,0,1,362.66667,320V265.14323L341.33333,256l-15.28906,6.55208a21.26454,21.26454,0,0,0,15.28906,36.11459Z" style="fill:#002755"/><circle cx="277.33333" cy="192" r="21.33333" style="fill:#163969"/><rect x="277.33333" y="85.33333" width="128" height="192.00009" rx="63.99994" ry="63.99994" style="fill:#163969"/><path d="M277.33333,149.33333v64a63.42943,63.42943,0,0,0,9.50651,33.16016A63.686,63.686,0,0,0,384,192V128a63.42948,63.42948,0,0,0-9.50651-33.16016,63.686,63.686,0,0,0-97.16016,54.49349Z" style="fill:#33527d"/><circle cx="373.33333" cy="181.33338" r="10.66667" style="fill:#002755"/><circle cx="309.33333" cy="181.33338" r="10.66667" style="fill:#002755"/><rect x="320" y="192" width="42.66667" height="21.33333" rx="10.66666" ry="10.66666" style="fill:#163969"/><rect x="320" y="234.66667" width="42.66667" height="21.33333" rx="10.66666" ry="10.66666" style="fill:#bce4ff"/><rect x="320" y="384" width="64" height="21.33333" rx="10.66666" ry="10.66666" style="fill:#b8c2ff"/><rect x="362.66667" y="362.66667" width="21.33333" height="42.66667" rx="10.66666" ry="10.66666" style="fill:#b8c2ff"/><path d="M341.33342,64h-.00017A85.33325,85.33325,0,0,0,256,149.33325v.0001a21.33331,21.33331,0,0,0,21.33331,21.33332h128a21.33332,21.33332,0,0,0,21.33332-21.33332v-.0001A85.33325,85.33325,0,0,0,341.33342,64Z" style="fill:#c175ff"/><rect x="298.66667" y="85.33333" width="64" height="42.66667" rx="21.33331" ry="21.33331" style="fill:#cf94ff"/><ellipse cx="298.66667" cy="106.66667" rx="27.49359" ry="12.40468" transform="translate(12.05272 242.43117) rotate(-45)" style="fill:#d7a5ff"/><circle cx="170.66667" cy="426.66667" r="21.33333" style="fill:#bc5cf3"/><circle cx="181.33333" cy="416" r="10.66667" style="fill:#d7a5ff"/><rect x="213.33333" y="64" width="21.33333" height="170.66667" rx="10.66666" ry="10.66666" style="fill:#ffea21"/><polygon points="213.333 170.667 192 234.667 256 234.667 234.667 170.667 213.333 170.667" style="fill:#ffea21"/><path d="M213.33333,192a21.33355,21.33355,0,0,0,21.33334,21.33333,20.86038,20.86038,0,0,0,12.67968-4.6276l-12.67968-38.03906A21.33272,21.33272,0,0,0,213.33333,192Z" style="fill:#ffbe00"/><rect x="213.33333" y="106.66667" width="21.33333" height="85.33333" rx="10.66666" ry="10.66666" style="fill:#ffbe00"/><circle cx="224" cy="160" r="32" style="fill:#ffea21"/><circle cx="213.33333" cy="149.33333" r="21.33333" style="fill:#ffff9d"/><path d="M245.33005,149.54084a10.66691,10.66691,0,0,0-10.66381,10.566,10.61755,10.61755,0,0,1-8.23488,10.2863,10.66671,10.66671,0,0,0,4.74764,20.79839,32.021,32.021,0,0,0,18.80475-12.51005l.00078-.00108c.03689-.05123.074-.10315.11065-.15462l.0037-.00519.02292-.03227.00488-.00689.02219-.03136.0052-.00736.02367-.03355.00248-.0035.08082-.11529.00432-.00621.02213-.03176.00547-.00787.0206-.02967.00624-.009.02238-.03233.00347-.005.05371-.078.00022-.00031.02523-.0368.00589-.00863.0194-.0284.00729-.01068.01866-.02741.00789-.01157.01862-.02745.00681-.01.01884-.02783.01416-.021.01771-.02626.00848-.01262.01619-.02406.01-.015.01582-.0236.00995-.01487.0138-.02065.01211-.01817.01319-.0198.01142-.01717.024-.03619.00558-.00844.01877-.02838.01084-.0164.01366-.02073.012-.01815.0133-.02025.01035-.01578.01552-.02371.00969-.01481.01549-.02372.0091-.01394.01759-.027.01687-.026.01368-.0211.01166-.018.01166-.018.0132-.02045.01149-.01782.01269-.01976.01083-.01684.01331-.02076.01308-.02044.01057-.01652.02282-.03577.01207-.019.01169-.01841.01289-.02031.01071-.0169.01414-.02236.00925-.01463.01378-.02187.01012-.01607.01384-.022.01223-.01949.01064-.017.015-.024.02144-.03435.00946-.01517.01442-.02322.00785-.01263.01533-.02472.00831-.01343.01541-.02492.0051-.00828.06056-.09851.0006-.001.01652-.027.00649-.01064.017-.02789.00443-.00728.01852-.03046.00342-.00564.01814-.03.00381-.00629.07807-.1298.006-.01.0153-.02564.00679-.01137.01626-.02732.00514-.00865.0174-.0293.00186-.00313c.02668-.045.05371-.0909.08019-.13609l.003-.00519.01727-.02952.00477-.00817.01784-.03058.002-.0035c.0337-.05788.06678-.11509.10012-.1732l.0027-.0047.01691-.02952.00553-.00966.01523-.02668.00713-.01249.01521-.02671.002-.00356c.02632-.04631.05209-.0919.07819-.13835l.002-.00364.01912-.0341.00063-.00114a31.8441,31.8441,0,0,0,4.05975-15.30586A10.66643,10.66643,0,0,0,245.433,149.54133l-.10291-.00049Z" style="fill:#ffbe00"/><circle cx="234.66667" cy="320" r="21.33333" style="fill:#d7a5ff"/><path d="M85.57911,335.08769l12.048,60.24A12.43852,12.43852,0,0,0,120.49,399.28785l36.144-60.24a12.43851,12.43851,0,0,0-10.66594-18.83808h-48.192A12.43852,12.43852,0,0,0,85.57911,335.08769Z" style="fill:#ffff9d"/><rect x="85.33333" y="448" width="128" height="21.33333" rx="10.66666" ry="10.66666" style="fill:#cdd4df"/><rect x="256" y="469.33333" width="213.33333" height="21.33333" rx="10.66666" ry="10.66666" style="fill:#33527d"/><path d="M405.33333,384v0a21.33331,21.33331,0,0,1,21.33332-21.33331H448V341.33331A21.33331,21.33331,0,0,1,469.33331,320h0a21.33331,21.33331,0,0,1,21.33332,21.33331v21.33336A42.66666,42.66666,0,0,1,448,405.33333H426.66665A21.33331,21.33331,0,0,1,405.33333,384Z" style="fill:#b244f1"/></g></svg>